<svg xmlns="http://www.w3.org/2000/svg" viewBox="0 0 24 30">
    <g>
        <path
        d="M 4.5,4 C 3.1236503,4 2,5.1236503 2,6.5 v 11 C 2,18.87635 3.1236503,20 4.5,20 h 15 C 20.87635,20 22,18.87635 22,17.5 V 6.5 C 22,5.1236503 20.87635,4 19.5,4 Z m 0,1 h 15 C 20.339648,5 21,5.6603525 21,6.5 v 11 C 21,18.339648 20.339648,19 19.5,19 H 4.5 C 3.6603525,19 3,18.339648 3,17.5 V 6.5 C 3,5.6603525 3.6603525,5 4.5,5 Z"
        fill="#000000"
        stroke-linecap="round"
        stroke-linejoin="round"
        />
        <path
        d="M 9.2598283,7.0605545 A 0.50017031,0.50011511 0 0 0 9.0000002,7.5000648 v 9.0011722 a 0.50017031,0.50011511 0 0 0 0.7697164,0.419976 l 7.0016844,-4.500586 a 0.50017031,0.50011511 0 0 0 0,-0.839953 L 9.7697166,7.0800882 A 0.50017031,0.50011511 0 0 0 9.2598283,7.0605545 Z m 0.7404127,1.3536918 5.579467,3.5864047 -5.579467,3.586405 z"
        fill="#000000"
        stroke-width="1"
        stroke-linecap="round"
        stroke-linejoin="round"
        />
    </g>
</svg>